<svg width="437" height="437" viewBox="0 0 437 437" fill="none" xmlns="http://www.w3.org/2000/svg">
<circle cx="218.5" cy="218.5" r="211.5" fill="#011626" stroke="url(#paint0_linear_21_4)" stroke-width="13"/>
<path d="M101 219C101 215.134 104.134 212 108 212H152C155.866 212 159 215.134 159 219V334C159 337.866 155.866 341 152 341H108C104.134 341 101 337.866 101 334V219Z" fill="url(#paint1_linear_21_4)"/>
<path d="M185 165C185 161.134 188.134 158 192 158H236C239.866 158 243 161.134 243 165V334C243 337.866 239.866 341 236 341H192C188.134 341 185 337.866 185 334V165Z" fill="url(#paint2_linear_21_4)"/>
<path d="M265 114C265 110.134 268.134 107 272 107H316C319.866 107 323 110.134 323 114V334C323 337.866 319.866 341 316 341H272C268.134 341 265 337.866 265 334V114Z" fill="url(#paint3_linear_21_4)"/>
<defs>
<linearGradient id="paint0_linear_21_4" x1="219" y1="7" x2="218.5" y2="430" gradientUnits="userSpaceOnUse">
<stop stop-color="#CAA676"/>
<stop offset="0.482249" stop-color="#FCC880"/>
<stop offset="1" stop-color="#AB8A6A"/>
</linearGradient>
<linearGradient id="paint1_linear_21_4" x1="101" y1="276.5" x2="159" y2="276.5" gradientUnits="userSpaceOnUse">
<stop stop-color="#EDAB6C"/>
<stop offset="0.572236" stop-color="#FCC880"/>
<stop offset="1" stop-color="#DF9E67"/>
</linearGradient>
<linearGradient id="paint2_linear_21_4" x1="185" y1="249.5" x2="243" y2="249.5" gradientUnits="userSpaceOnUse">
<stop stop-color="#976644"/>
<stop offset="0.389423" stop-color="#AD764D"/>
<stop offset="0.548077" stop-color="#C08455"/>
<stop offset="0.884615" stop-color="#DFA665"/>
</linearGradient>
<linearGradient id="paint3_linear_21_4" x1="265" y1="224" x2="323" y2="224" gradientUnits="userSpaceOnUse">
<stop stop-color="#F7C279"/>
<stop offset="0.278846" stop-color="#E0AC6C"/>
<stop offset="0.548077" stop-color="#D29560"/>
<stop offset="0.884615" stop-color="#BD8760"/>
</linearGradient>
</defs>
</svg>
